<?xml version="1.0" standalone="no"?>
<!DOCTYPE svg PUBLIC "-//W3C//DTD SVG 20010904//EN"
 "http://www.w3.org/TR/2001/REC-SVG-20010904/DTD/svg10.dtd">
<svg version="1.0" xmlns="http://www.w3.org/2000/svg"
 width="270.000000pt" height="270.000000pt" viewBox="0 0 270.000000 270.000000"
 preserveAspectRatio="xMidYMid meet">
<metadata>
Created by potrace 1.16, written by Peter Selinger 2001-2019
</metadata>
<g transform="translate(0.000000,270.000000) scale(0.100000,-0.100000)"
fill="#222" stroke="none">
<path d="M685 2381 c-39 -6 -40 -7 -39 -46 1 -22 5 -53 9 -68 6 -22 2 -34 -17
-55 -14 -15 -32 -46 -41 -69 -20 -51 -43 -293 -31 -316 5 -9 8 -34 6 -56 -4
-37 -8 -42 -56 -65 -51 -25 -78 -58 -69 -83 3 -8 23 -13 54 -13 39 0 49 -3 49
-16 0 -13 -7 -15 -34 -11 -27 4 -38 1 -54 -16 -32 -35 -72 -123 -93 -205 -24
-93 -26 -297 -4 -387 8 -33 15 -87 16 -120 1 -48 3 -53 8 -26 l6 34 19 -39
c23 -48 23 -153 1 -170 -18 -13 -19 -31 -4 -36 7 -2 5 -49 -7 -151 -17 -145
-15 -179 10 -145 8 11 31 18 67 21 l54 3 -57 2 c-43 2 -58 6 -58 17 0 11 18
15 78 18 l77 3 -79 2 c-61 2 -77 5 -73 15 3 8 8 60 12 115 l8 102 75 0 75 0
-5 -134 -5 -135 26 -3 c14 -2 26 -8 26 -15 0 -21 16 -28 28 -12 7 9 34 18 67
22 107 12 310 52 310 60 0 5 -7 7 -15 3 -27 -10 -220 -45 -289 -52 l-68 -7 4
29 c3 28 4 29 68 31 102 2 190 14 190 25 0 6 -7 7 -17 3 -10 -4 -67 -10 -127
-13 l-109 -5 6 39 c4 22 7 49 7 61 0 21 1 22 36 7 51 -22 410 -54 596 -54
l156 0 19 -33 c11 -18 23 -45 27 -60 8 -35 50 -54 139 -63 155 -16 227 16 227
100 0 64 7 76 46 76 26 0 39 -7 58 -33 15 -19 26 -39 26 -46 0 -26 92 -54 196
-59 135 -6 137 -5 128 131 l-6 102 45 85 c73 137 98 231 104 390 4 102 1 161
-11 234 -14 82 -59 236 -91 309 -5 12 -3 17 8 17 8 0 21 7 28 17 13 15 12 15
-10 4 -24 -13 -83 -25 -441 -87 l-205 -36 -185 11 c-102 6 -329 18 -505 27
-176 9 -322 18 -324 20 -3 2 0 9 6 15 8 8 126 5 419 -12 610 -34 614 -33 954
30 157 29 291 58 298 63 6 6 12 16 12 23 0 17 -61 70 -108 94 -50 25 -413 138
-498 155 -65 14 -288 27 -474 28 -150 2 -291 -34 -483 -121 -38 -17 -75 -31
-83 -31 -12 0 -14 21 -12 114 l3 114 25 -18 c45 -31 99 -43 181 -38 71 4 84 8
134 43 30 20 55 41 55 46 0 20 35 39 73 39 81 0 137 60 137 147 0 43 -27 90
-62 109 -27 16 -81 18 -125 5 -20 -6 -35 -5 -41 1 -7 7 -10 6 -9 -3 1 -40 -4
-49 -28 -49 -29 0 -30 3 -9 35 27 41 -1 29 -73 -32 -80 -68 -163 -120 -215
-134 -57 -15 -103 8 -119 59 -12 43 -6 78 12 66 6 -3 9 -19 7 -35 -3 -16 0
-25 5 -22 5 3 7 23 4 44 -3 27 -1 39 9 43 20 8 17 36 -3 35 -10 -1 -36 -5 -58
-8z m412 -29 c-21 -23 -13 -32 26 -32 20 0 30 6 34 20 3 11 9 20 13 20 5 0 17
3 27 7 12 4 7 -5 -14 -27 -51 -53 -55 -122 -11 -170 l22 -23 -22 -18 c-59 -47
-234 -72 -268 -37 -15 15 -15 17 12 31 16 9 45 33 65 54 39 41 103 142 95 150
-2 3 -15 -14 -28 -36 -24 -43 -35 -50 -44 -27 -3 8 15 33 43 60 46 44 83 65
50 28z m191 7 c40 -14 62 -49 62 -100 0 -58 -29 -93 -97 -119 -30 -11 -57 -19
-59 -17 -2 1 -1 13 2 24 5 19 9 20 25 10 15 -9 23 -7 44 13 25 23 35 70 14 70
-6 0 -3 7 5 16 9 8 16 19 16 23 0 10 -22 31 -34 31 -6 0 -5 -5 2 -12 7 -7 12
-19 11 -27 0 -11 -2 -12 -6 -3 -2 6 -8 12 -13 12 -9 0 -2 -39 11 -55 4 -6 1
-18 -6 -28 -12 -16 -14 -13 -24 32 -6 28 -8 58 -4 68 5 17 5 17 -12 1 -12 -11
-15 -22 -10 -35 5 -10 8 -21 7 -25 -1 -4 5 -23 13 -42 17 -40 5 -48 -19 -14
-13 18 -16 19 -16 5 0 -24 -17 -21 -31 5 -16 29 -13 94 5 119 14 21 64 59 77
59 3 0 20 -5 37 -11z m512 -419 c36 -6 137 -33 225 -61 88 -27 189 -59 225
-70 109 -34 205 -107 169 -130 -7 -4 -51 -15 -99 -23 -47 -8 -188 -34 -315
-57 l-230 -41 -205 11 c-113 7 -320 18 -460 26 -140 8 -276 15 -302 15 l-48 0
0 58 0 59 138 -3 137 -2 -115 8 c-63 4 -127 8 -142 9 -21 1 -28 6 -28 21 0 11
5 20 11 20 7 0 17 6 23 14 9 11 34 12 136 5 69 -4 249 -15 400 -24 151 -9 326
-20 388 -26 l114 -9 99 52 c54 29 96 54 94 56 -2 2 -46 -19 -98 -47 l-94 -51
-114 10 c-127 11 -529 36 -714 45 -159 8 -173 12 -110 37 37 15 63 18 105 14
43 -5 765 -46 804 -46 5 0 7 2 4 5 -3 3 -171 14 -374 25 -203 11 -391 23 -418
26 l-48 7 32 13 c156 66 215 74 500 69 135 -3 274 -10 310 -15z m613 -446 c71
-212 86 -453 38 -629 -33 -120 -97 -242 -148 -281 -51 -39 -186 -74 -316 -82
-83 -5 -87 -4 -81 14 6 15 4 17 -6 7 -7 -6 -15 -35 -18 -63 -6 -60 -14 -67
-103 -76 -65 -6 -209 10 -241 27 -10 5 -27 28 -38 49 -11 22 -23 40 -26 40 -3
0 -2 -4 1 -10 11 -17 -270 -11 -495 10 -200 19 -280 36 -280 59 0 6 -6 10 -12
9 -16 -4 -16 20 0 262 21 307 18 290 57 290 33 0 33 0 28 -39 -6 -42 12 -111
29 -111 7 0 6 5 -1 14 -6 8 -14 36 -17 62 -6 55 11 97 41 102 31 7 45 -26 45
-102 -1 -93 -13 -154 -35 -170 -15 -11 -13 -13 22 -14 61 -3 77 22 82 119 2
44 0 100 -4 126 -8 52 -42 93 -77 92 -19 -1 -18 -2 8 -10 42 -12 56 -47 62
-154 5 -105 -12 -165 -48 -165 -18 0 -20 4 -13 43 5 23 8 84 8 135 0 79 -3 96
-18 107 -21 15 -56 9 -64 -11 -3 -9 -20 -14 -44 -14 -45 0 -44 -4 -31 143 8
79 2 97 -28 97 -12 0 -16 -10 -16 -34 0 -19 4 -32 9 -29 4 2 7 -21 5 -54 l-3
-58 -79 -3 c-76 -3 -81 -2 -101 24 -29 36 -23 94 10 94 20 0 24 -7 30 -50 l7
-50 42 0 c38 0 66 13 66 31 0 10 -50 17 -56 8 -3 -5 4 -9 15 -9 12 0 21 -4 21
-10 0 -5 -18 -10 -40 -10 l-40 0 0 45 c0 41 2 45 25 45 18 0 23 -4 18 -16 -5
-15 11 -33 30 -34 7 0 16 20 32 70 7 23 7 23 -9 7 -10 -9 -23 -14 -29 -10 -7
4 -32 11 -57 14 -43 7 -42 7 15 6 l60 -1 53 107 54 108 111 -6 c62 -3 186 -10
277 -15 91 -5 271 -14 400 -21 l235 -11 210 37 c116 20 242 43 280 50 111 21
105 25 148 -101z m-1873 72 c-4 -39 -42 -192 -51 -202 -7 -8 -14 -47 -15 -86
-2 -39 -9 -77 -16 -85 -7 -8 -14 -51 -15 -95 -2 -44 -8 -88 -13 -98 -15 -28
-12 -50 5 -44 12 5 15 -2 15 -31 0 -34 -2 -36 -17 -24 -15 13 -15 12 -4 -9 7
-13 11 -37 9 -55 l-3 -32 -18 40 c-41 91 -52 155 -52 315 0 144 2 161 29 242
15 48 41 107 56 131 25 39 31 43 59 39 17 -2 31 -5 31 -6z m66 -446 c-3 -19
-6 -54 -6 -77 l0 -43 -40 0 c-37 0 -40 2 -49 38 -5 20 -12 56 -15 80 l-6 43
61 -3 61 -3 -6 -35z m-14 -190 l1 -35 4 31 c3 25 10 33 29 37 34 6 45 -23 37
-97 -6 -56 -6 -56 -39 -56 -32 0 -34 2 -36 38 l-1 37 -4 -38 c-4 -37 -5 -38
-40 -35 -36 3 -36 3 -53 75 -9 40 -16 74 -14 75 1 2 27 3 58 3 l56 0 2 -35z
m1733 -502 c-12 -9 -157 -8 -200 1 -23 5 -31 13 -36 37 l-6 31 76 18 c80 18
144 46 158 67 5 8 10 -20 13 -67 3 -48 1 -83 -5 -87z m-255 43 c0 -48 21 -56
146 -56 111 0 114 -1 114 -22 0 -31 -32 -37 -137 -29 -98 7 -150 26 -162 58
-5 13 -19 32 -31 43 l-22 20 38 6 c22 3 42 7 47 8 4 0 7 -12 7 -28z m-437 -92
c68 -11 175 -7 224 7 35 10 17 -32 -20 -48 -42 -17 -212 -17 -255 1 -41 17
-76 72 -36 57 9 -3 48 -11 87 -17z"/>
<path d="M822 1420 c-24 -17 -42 -33 -39 -36 4 -4 477 -34 548 -34 28 0 40 6
58 31 13 17 20 33 17 36 -3 4 -68 10 -143 14 -76 4 -196 10 -268 14 l-130 7
-43 -32z m340 6 c125 -6 230 -14 233 -17 3 -3 -5 -15 -18 -27 -23 -21 -25 -21
-227 -12 -113 6 -238 13 -278 16 l-72 6 32 23 c39 28 38 28 330 11z"/>
<path d="M2356 1435 c3 -11 15 -44 25 -73 87 -241 54 -522 -80 -665 -64 -69
-111 -91 -192 -92 -59 0 -72 4 -110 31 -53 38 -119 131 -149 211 -33 84 -39
252 -12 348 10 39 22 79 27 90 6 15 5 17 -3 10 -7 -6 -21 -46 -32 -89 -22 -89
-26 -215 -9 -298 35 -168 167 -318 279 -318 75 0 139 28 196 85 95 95 144 234
144 411 0 113 -31 261 -70 330 -12 22 -18 30 -14 19z"/>
<path d="M2157 1199 c-48 -28 -65 -173 -27 -233 64 -105 166 -49 164 90 0 34
-6 75 -13 92 -22 53 -80 77 -124 51z m87 -21 c52 -46 54 -181 5 -234 -29 -31
-52 -30 -89 4 -71 62 -41 252 39 252 11 0 31 -10 45 -22z"/>
</g>
</svg>
